<svg xmlns="http://www.w3.org/2000/svg" width="228" height="454"><rect id="backgroundrect" width="100%" height="100%" x="0" y="0" fill="none" stroke="none"/><title>Layer 1</title><g class="currentLayer"><title>Layer 1</title><path fill="#000000" fill-rule="evenodd" stroke-width="1" d="m86.09999542236329,116.70000228881835 l-85.6,89 l17.8,17.8 l67.8,-72.1 l0.8,121.3 l-58.5,180.6 c0,0 38.2,1 39,-0.7000000000000002 c0.4,-0.8 42.4,-167.1 44.1,-169.7 l47.5,169.6 l36.5,0 l-58.5,-178.9 l0.8,-122.1 l69.5,70.4 l20.4,-17 l-88.2,-88.2 l-53.4,0 zM112.39999542236328,0.5000022888183597 c-79.7,1.7000000000000002 -78.9,106 -2.5,106.8 c82.2,0 84.8,-106 2.5,-106.8 z" id="svg_1" class=""/></g></svg>